<?xml version="1.0" encoding="utf-8"?>
<!-- Generator: Adobe Illustrator 21.1.0, SVG Export Plug-In . SVG Version: 6.00 Build 0)  -->
<svg version="1.1" id="Calque_1" xmlns="http://www.w3.org/2000/svg" xmlns:xlink="http://www.w3.org/1999/xlink" x="0px" y="0px"
	 viewBox="0 0 52.9 20.1" style="enable-background:new 0 0 52.9 20.1;" xml:space="preserve">
<style type="text/css">
	.st0{fill:#1D1D1B;}
	.st1{fill:#393939;}
	.st2{opacity:0.3;fill:#FFFFFF;}
</style>
<g>
	<path d="M51,3.5L46.9,5l-2-0.7l-1.5-2.5H43V0h-2.7v1.8h-17V0h-2.7v1.8h-0.8l-1.4,1.8h-2.1v0.8h-2.8c-0.3-0.5-0.8-0.8-1.4-0.8H1.9
		C0.8,3.5,0,4.7,0,6.3S0.8,9,1.9,9h14.5v0.3l2.4,2.1h12.2l0.4,2.1l-0.9,3.9h-0.5l-0.6,2.8h6.9l0.6-2.8h-0.6l0.8-3.3H40l0,0l0.5,2.1
		l-0.4,2.4h5.3l0.4-2.8h-0.7l-1.2-5l0.4-0.4h2.2v0.6l4.5,1.8h1.9V3.5H51z"/>
	<rect x="11.6" y="7.1" class="st0" width="22.2" height="0.8"/>
	<polygon class="st0" points="17.3,8.8 19.1,10.4 19.1,4.5 17.3,4.5 	"/>
	<rect x="11.6" y="5.4" class="st1" width="22.2" height="1.8"/>
	<polygon class="st1" points="47.5,9.2 42.6,9.2 42.6,4.5 47.5,6.3 	"/>
	<polygon class="st0" points="47.5,9.2 42.6,9.2 42.6,7.9 47.5,8.8 	"/>
	<polygon class="st1" points="43.9,4.5 20.3,4.5 20.3,2.8 42.8,2.8 	"/>
	<polygon class="st0" points="19.1,4.5 20.3,4.5 20.3,2.8 19.1,4.3 	"/>
	<path class="st1" d="M12.2,4.5H1.9V8h10.3c0.5,0,0.9-0.8,0.9-1.7C13.1,5.3,12.7,4.5,12.2,4.5z"/>
	<path class="st2" d="M11.3,6.1L4,6.1C3.8,6.1,3.7,6,3.7,5.8V5.5c0-0.2,0.1-0.3,0.3-0.3h7.2c0.2,0,0.3,0.1,0.3,0.3v0.3
		C11.6,6,11.4,6.1,11.3,6.1z"/>
	<polygon class="st1" points="42.8,10.4 19.1,10.4 19.1,4.5 43.8,4.5 43.8,9.2 	"/>
	<polygon class="st1" points="51.2,11.6 47.5,10.1 47.5,5.8 51.2,4.5 	"/>
	<rect x="19.1" y="4.5" class="st0" width="24.8" height="0.8"/>
	<rect x="21.7" y="1" class="st0" width="0.7" height="3.5"/>
	<rect x="22.4" y="2.8" class="st0" width="0.7" height="1.8"/>
	<rect x="24.4" y="2.8" class="st0" width="0.7" height="1.8"/>
	<rect x="25.1" y="2.8" class="st0" width="0.7" height="1.8"/>
	<rect x="27.8" y="2.8" class="st0" width="0.7" height="1.8"/>
	<rect x="27.1" y="2.8" class="st0" width="0.7" height="1.8"/>
	<rect x="29.8" y="2.8" class="st0" width="0.7" height="1.8"/>
	<rect x="30.5" y="2.8" class="st0" width="0.7" height="1.8"/>
	<rect x="32.5" y="2.8" class="st0" width="0.7" height="1.8"/>
	<rect x="33.2" y="2.8" class="st0" width="0.7" height="1.8"/>
	<rect x="35.9" y="2.8" class="st0" width="0.7" height="1.8"/>
	<rect x="35.2" y="2.8" class="st0" width="0.7" height="1.8"/>
	<rect x="37.9" y="2.8" class="st0" width="0.7" height="1.8"/>
	<rect x="38.6" y="2.8" class="st0" width="0.7" height="1.8"/>
	<rect x="40.6" y="2.8" class="st0" width="0.7" height="1.8"/>
	<rect x="41.3" y="1" class="st0" width="0.7" height="3.5"/>
	<ellipse class="st0" cx="1.9" cy="6.3" rx="0.9" ry="1.7"/>
	<rect x="22.4" y="7.9" class="st2" width="7.6" height="1.4"/>
	<rect x="33.5" y="7.9" class="st2" width="7.6" height="1.4"/>
	<polygon class="st0" points="34.9,18.3 31.1,18.3 33,10.4 36.8,10.4 	"/>
	<polygon class="st0" points="44.3,16.7 41.7,16.7 40.2,10.4 42.8,10.4 	"/>
	<polygon class="st0" points="38.5,11.4 38,11.4 38.2,10.4 38.7,10.4 	"/>
	<polygon class="st1" points="35.5,18.3 35.3,19.1 30.4,19.1 30.6,18.3 	"/>
	<polygon class="st1" points="44.7,16.7 44.6,17.5 41.3,17.5 41.4,16.7 	"/>
	<polygon class="st1" points="39.7,10.4 38.6,12.1 37,12.1 37.3,10.4 31.7,10.4 32.2,13 39.5,13 41.2,10.4 	"/>
	<polygon class="st0" points="47.5,8.8 51.2,11.6 47.5,10.1 	"/>
	<rect x="51.2" y="4.5" class="st0" width="0.7" height="7.1"/>
</g>
</svg>
