<?xml version="1.0" encoding="utf-8"?>
<!-- Generator: Adobe Illustrator 21.1.0, SVG Export Plug-In . SVG Version: 6.00 Build 0)  -->
<svg version="1.1" id="Calque_1" xmlns="http://www.w3.org/2000/svg" xmlns:xlink="http://www.w3.org/1999/xlink" x="0px" y="0px"
	 viewBox="0 0 25.3 44.4" style="enable-background:new 0 0 25.3 44.4;" xml:space="preserve">
<style type="text/css">
	.st0{fill:#4B90E2;}
	.st1{opacity:0.3;fill:#1D1D1B;}
	.st2{fill:#E8D7BF;}
	.st3{fill:#FFFFFF;}
</style>
<g>
	<path class="st0" d="M18.3,44.4H7c-1.7,0-3-1.3-3-3L0,22.8c0-1.7,1.4-3,3-3h19.3c1.6,0,3,1.3,3,3l-4,18.7
		C21.3,43.1,20,44.4,18.3,44.4z"/>
	<path class="st1" d="M22.3,19.8H3c-1.7,0-3,1.3-3,3l4,18.7c0,1.6,1.3,3,3,3h11.3c1.7,0,3-1.4,3-3l4-18.7
		C25.3,21.1,24,19.8,22.3,19.8z M19.7,39.6c0,1.3-1.1,2.4-2.4,2.4H8.1c-1.3,0-2.4-1.1-2.4-2.4L2.4,24.5c0-1.3,1.1-2.4,2.4-2.4H5
		c0,0,0,0,0,0c0,1.7,3.5,3.1,7.7,3.1s7.7-1.4,7.7-3.1c0,0,0,0,0,0h0.1c1.3,0,2.4,1.1,2.4,2.4L19.7,39.6z"/>
	<circle class="st2" cx="12.7" cy="11.6" r="11.6"/>
	<path class="st1" d="M12.7,0C6.3,0,1.1,5.2,1.1,11.6c0,6.4,5.2,11.6,11.6,11.6c6.4,0,11.6-5.2,11.6-11.6C24.3,5.2,19.1,0,12.7,0z
		 M12.7,21c-5.2,0-9.4-4.2-9.4-9.4s4.2-9.4,9.4-9.4s9.4,4.2,9.4,9.4S17.9,21,12.7,21z"/>
	<circle class="st3" cx="19" cy="10.7" r="1.8"/>
	<circle class="st3" cx="12" cy="10.7" r="2.8"/>
</g>
</svg>
