<?xml version="1.0" encoding="utf-8"?>
<!-- Generator: Adobe Illustrator 21.1.0, SVG Export Plug-In . SVG Version: 6.00 Build 0)  -->
<svg version="1.1" id="Calque_1" xmlns="http://www.w3.org/2000/svg" xmlns:xlink="http://www.w3.org/1999/xlink" x="0px" y="0px"
	 viewBox="0 0 26.2 46.9" style="enable-background:new 0 0 26.2 46.9;" xml:space="preserve">
<style type="text/css">
	.st0{opacity:0.3;fill:#1D1D1B;enable-background:new    ;}
	.st1{fill:#940000;}
	.st2{opacity:0.3;enable-background:new    ;}
	.st3{fill:#E8D7BF;}
	.st4{fill:url(#SVGID_1_);}
	.st5{fill:#FFFFFF;}
	.st6{opacity:0.3;fill:url(#SVGID_2_);enable-background:new    ;}
</style>
<g>
	<g>
		<path d="M22.1,43.9l4-18.7c0-1.6-1.3-3-3-3H3.8c-1.6,0-3,1.4-3,3l4,18.7c0,1.7,1.4,3,3,3h11.3C20.7,46.9,22.1,45.6,22.1,43.9z"/>
		<path class="st0" d="M23.1,22.2H3.8c-1.7,0-3,1.3-3,3l4,18.7c0,1.6,1.3,3,3,3h11.3c1.7,0,3-1.4,3-3l4-18.7
			C26.1,23.6,24.7,22.2,23.1,22.2z M20.4,42.1c0,1.3-1.1,2.4-2.4,2.4H8.8c-1.3,0-2.4-1.1-2.4-2.4L3.2,27c0-1.3,1.1-2.4,2.4-2.4h0.1
			l0,0c0,1.7,3.5,3.1,7.7,3.1s7.7-1.4,7.7-3.1l0,0h0.1c1.3,0,2.4,1.1,2.4,2.4L20.4,42.1z"/>
	</g>
	<g>
		<path class="st1" d="M12.1,43.5c-4.6,1-7.9,0.2-11.3-0.1c0.8-3.5-1.5-16.2-0.5-18.6c1.1-6.3,10.8-1.3,16-0.6
			c0.8,0.1,1.3,0.1,2-0.1c1.1-0.4,2.4-1.4,3.4-2.2c9.1-1.1,1.5,13.6,1.9,18.9c-0.8,2.2-1.7,3.1-5.5,2.1
			C15.4,42.4,13.8,43.1,12.1,43.5z"/>
		<path class="st2" d="M4.6,23.7c1.9,0,4.5,0.7,6.8,1.3c1.7,0.5,3.4,1,4.8,1.2c0.5,0.1,0.8,0.1,1.1,0.1c0.6,0,1.1-0.1,1.7-0.3
			c1.2-0.4,2.4-1.2,3.5-2.2h0.1c0.9,0,1.1,0.3,1.2,0.4c1,1.3-0.2,6.1-1,9.2c-0.7,2.7-1.3,5.2-1.3,7.1c-0.3,0.8-0.5,0.8-1,0.8
			s-1.2-0.1-2-0.3c-0.1,0-0.1,0-0.1,0c-0.8-0.2-1.6-0.3-2.4-0.3c-1.6,0-2.9,0.4-3.9,0.7c-0.2,0.1-0.3,0.2-0.5,0.2
			C10.3,41.9,8.9,42,7.5,42c-1.6,0-3.1-0.1-4.5-0.3c0-2.1-0.2-4.9-0.5-7.9c-0.2-2.9-0.6-7.2-0.3-8.2c0-0.2,0.1-0.3,0.1-0.4
			C2.5,24.4,2.7,23.7,4.6,23.7 M4.6,21.7c-2.2,0-3.8,0.7-4.2,3.1c-1,2.4,1.3,15.1,0.5,18.6C3.1,43.6,5.2,44,7.6,44
			c1.4,0,2.9-0.1,4.6-0.5c1.1-0.3,2.3-0.8,3.9-0.8c0.6,0,1.3,0,2,0.2c1,0.3,1.8,0.4,2.5,0.4c1.8,0,2.4-0.9,3-2.5
			c-0.5-5.1,6.6-18.9-1-18.9c-0.3,0-0.6,0.1-0.9,0.1c-1,0.8-2.3,1.8-3.4,2.2c-0.4,0.1-0.7,0.2-1.1,0.2c-0.2,0-0.5-0.1-0.8-0.1
			C13.2,23.8,8.2,21.7,4.6,21.7L4.6,21.7z"/>
	</g>
	<g>
		<circle class="st3" cx="13.7" cy="14.1" r="11.6"/>
		
			<linearGradient id="SVGID_1_" gradientUnits="userSpaceOnUse" x1="12.505" y1="22.3421" x2="12.505" y2="45.5087" gradientTransform="matrix(-1 0 0 -1 26.1617 48)">
			<stop  offset="0.2874" style="stop-color:#000000;stop-opacity:0.1"/>
			<stop  offset="0.8449" style="stop-color:#000000;stop-opacity:0.8"/>
		</linearGradient>
		<circle class="st4" cx="13.7" cy="14.1" r="11.6"/>
		<path class="st0" d="M13.6,2.5C7.2,2.5,2,7.7,2,14.1s5.2,11.6,11.6,11.6s11.6-5.2,11.6-11.6S20.1,2.5,13.6,2.5z M13.6,23.5
			c-5.2,0-9.4-4.2-9.4-9.4s4.3-9.4,9.5-9.4s9.4,4.2,9.4,9.4S18.8,23.5,13.6,23.5z"/>
		<path class="st5" d="M18.3,14.1c0.4,0.8,1.6,1.1,2.4,0.7s1.2-1.5,0.7-2.4S17.9,13.3,18.3,14.1z"/>
		<path class="st5" d="M10.6,12.4c-0.5,1.4,0.3,3,1.7,3.5s3-0.3,3.5-1.7S11.1,10.9,10.6,12.4z"/>
		<path class="st2" d="M17.7,12.2c0.9-0.7,2.2-0.8,3-0.6C19.2,11.7,17.9,12.3,17.7,12.2z"/>
		<path class="st2" d="M16.1,12.2c-1.3-1-3.1-1.2-4.3-0.9C14,11.5,15.8,12.4,16.1,12.2z"/>
	</g>
	<g>
		<path class="st1" d="M2.2,6.4C0.3,8.3,0.8,14.7,1.7,19c3.3,6.7,13.2,9.3,15.6,9.4c7.3-3.3,8-6.6,7-8.6c-0.8,0.5-3.1,1.1-5.8,1.1
			c-4.6-0.8-6.6-2.8-8.1-3.7c-0.7-1.7-0.3-6,0-7.9c1.1,0,9.1,0.5,14.8,0.2C23.3,2.1,16,0,12.3,0C5,0,2.7,3.9,2.2,6.4z"/>
		<path class="st2" d="M12.2,2L12.2,2c2.7,0,7.7,1.2,10.1,5.5c-0.4,0-0.8,0-1.2,0c-4.2,0-8.5-0.2-10.1-0.3h-0.5h-0.1
			c-1,0-1.8,0.6-2,1.6c-0.2,1.3-0.9,6.5,0.1,9c0.1,0.4,0.4,0.8,0.8,1c0.3,0.2,0.6,0.4,0.9,0.6c1.5,1.1,3.8,2.7,7.9,3.4
			c0.1,0,0.2,0,0.3,0c1.2,0,2.5-0.1,3.6-0.3c-0.6,0.9-2,2.3-5.2,3.8c-2.7-0.4-10.5-2.7-13.3-8c-1.1-5.1-0.9-9.6,0-10.5
			c0.2-0.3,0.4-0.6,0.5-1C4.5,5,6.1,2,12.2,2 M12.2,0C5,0,2.7,3.9,2.2,6.4C0.3,8.3,0.8,14.7,1.7,19c3.3,6.7,13.2,9.3,15.6,9.4
			c7.3-3.3,8-6.6,7-8.6c-0.8,0.5-3.1,1.1-5.8,1.1c-4.6-0.8-6.6-2.8-8.1-3.7c-0.7-1.7-0.3-6,0-7.9c0.9,0,5.9,0.3,10.7,0.3
			c1.4,0,2.8,0,4.1-0.1C23.3,2.1,16,0,12.2,0C12.3,0,12.2,0,12.2,0L12.2,0z"/>
		
			<linearGradient id="SVGID_2_" gradientUnits="userSpaceOnUse" x1="0.33" y1="32.8567" x2="17.7425" y2="32.8567" gradientTransform="matrix(-1 0 0 -1 26.1617 48)">
			<stop  offset="0" style="stop-color:#FFFFFF;stop-opacity:0.1"/>
			<stop  offset="1" style="stop-color:#FFFFFF"/>
		</linearGradient>
		<path class="st6" d="M25.2,19.9c-0.7,0.9-1.8,2.2-6.4,2.7c-4.2-0.5-8.3-2.9-9.9-4.7C8.2,15.4,8.1,7.7,10,7.7
			C12.5,7.6,20.9,8.1,24.9,8C26.3,10.1,26,16.6,25.2,19.9z"/>
	</g>
</g>
</svg>
