<?xml version="1.0" encoding="utf-8"?>
<!-- Generator: Adobe Illustrator 21.1.0, SVG Export Plug-In . SVG Version: 6.00 Build 0)  -->
<svg version="1.1" id="Calque_1" xmlns="http://www.w3.org/2000/svg" xmlns:xlink="http://www.w3.org/1999/xlink" x="0px" y="0px"
	 viewBox="0 0 187.3 93.3" style="enable-background:new 0 0 187.3 93.3;" xml:space="preserve">
<style type="text/css">
	.st0{fill:#0B6668;}
	.st1{fill:#344557;}
	.st2{fill:#E664B9;}
	.st3{fill:url(#SVGID_1_);}
	.st4{fill:url(#SVGID_2_);}
	.st5{fill:url(#SVGID_3_);}
</style>
<g>
	<g>
		
			<image style="overflow:visible;opacity:0.75;" width="113" height="47" xlink:href="D9FB0EBF.png"  transform="matrix(1 0 0 1 37 49)">
		</image>
		<g>
			<ellipse class="st0" cx="93.5" cy="72.8" rx="41" ry="8.3"/>
		</g>
	</g>
	<ellipse class="st1" cx="93.5" cy="66.5" rx="59" ry="10.2"/>
	<g>
		
			<image style="overflow:visible;opacity:0.75;" width="203" height="64" xlink:href="D9FB0EBD.png"  transform="matrix(1 0 0 1 -8 23)">
		</image>
		<g>
			<ellipse class="st2" cx="93.5" cy="54.9" rx="86.5" ry="16.8"/>
		</g>
	</g>
	<ellipse class="st1" cx="93.5" cy="47.5" rx="91.5" ry="19.7"/>
	<ellipse class="st1" cx="93.5" cy="35.8" rx="91.5" ry="19.7"/>
	<g>
		
			<image style="overflow:visible;opacity:0.75;" width="203" height="64" xlink:href="D9FB0EC3.png"  transform="matrix(1 0 0 1 -8 2)">
		</image>
		<g>
			<ellipse class="st2" cx="93.5" cy="34.3" rx="86.5" ry="16.8"/>
		</g>
	</g>
	<path class="st1" d="M18.5,34c0,0,5.5,10,75,10s75-10,75-10s-33.6-34-75-34C52.1,0,18.5,34,18.5,34z"/>
	
		<linearGradient id="SVGID_1_" gradientUnits="userSpaceOnUse" x1="1199.3589" y1="9.023" x2="1199.3589" y2="34.1311" gradientTransform="matrix(-1 0 0 1 1292.8589 0)">
		<stop  offset="0" style="stop-color:#0B6668;stop-opacity:0"/>
		<stop  offset="1" style="stop-color:#0B6668"/>
	</linearGradient>
	<path class="st3" d="M60.5,25.2c0,13.6,19.4,7.7,33,7.7s33,5.8,33-7.7S107.1,9,93.5,9S60.5,11.6,60.5,25.2z"/>
	
		<linearGradient id="SVGID_2_" gradientUnits="userSpaceOnUse" x1="1250.6749" y1="10.6396" x2="1250.6749" y2="29.5119" gradientTransform="matrix(-1 0 0 1 1292.8589 0)">
		<stop  offset="0" style="stop-color:#0B6668;stop-opacity:0"/>
		<stop  offset="1" style="stop-color:#0B6668"/>
	</linearGradient>
	<path class="st4" d="M51.8,10.6c3.7,5.3,0.1,18.4-10,18.9c-5.7,0.2-8.4-3-10.6-6.1C36.6,19.3,43.6,14.7,51.8,10.6z"/>
	
		<linearGradient id="SVGID_3_" gradientUnits="userSpaceOnUse" x1="1148.1565" y1="10.5904" x2="1148.1565" y2="29.5119" gradientTransform="matrix(-1 0 0 1 1292.8589 0)">
		<stop  offset="0" style="stop-color:#0B6668;stop-opacity:0"/>
		<stop  offset="1" style="stop-color:#0B6668"/>
	</linearGradient>
	<path class="st5" d="M145.1,29.5c-10.2-0.4-13.7-13.7-10-18.9c8.2,4,15.2,8.6,20.7,12.7C153.5,26.5,150.8,29.7,145.1,29.5z"/>
</g>
</svg>
